<svg width="423" height="348" viewBox="0 0 423 348" fill="none" xmlns="http://www.w3.org/2000/svg">
<path fill-rule="evenodd" clip-rule="evenodd" d="M346.68 293.017H307.918L320.02 313.984H102.628L116.002 290.879L127.811 270.409L147.192 236.907L175.299 188.231L211.341 125.872L262.409 214.294H301.171L241.218 110.583L230.682 92.3704L221.837 77.0764L211.341 58.8688L196.693 33.5015H247.02L255.866 48.8353L272.204 77.0764L291.585 110.583L364.584 236.907H173.32L153.939 270.409H422.682L403.301 236.907L330.307 110.583L310.926 77.0764L285.743 33.5015L275.247 15.3337L266.401 0H138.59L147.441 15.3337L157.932 33.5015L166.777 48.8353L183.115 77.0764H111.761L92.3803 110.583L19.381 236.907L0 270.409H62.921L82.302 236.907H58.1031L131.102 110.583H181.469L131.719 196.619L108.43 236.907L89.0888 270.409L72.4226 299.266L63.9055 313.984L44.5245 347.485H378.118L358.782 313.984L346.68 293.017Z" fill="#8C52FF"/>
</svg>
