<?xml version="1.0" standalone="no"?><!DOCTYPE svg PUBLIC "-//W3C//DTD SVG 1.1//EN" "http://www.w3.org/Graphics/SVG/1.1/DTD/svg11.dtd"><svg t="1669347665708" class="icon" viewBox="0 0 1024 1024" version="1.1" xmlns="http://www.w3.org/2000/svg" p-id="2330" width="24" height="24" xmlns:xlink="http://www.w3.org/1999/xlink"><path d="M303.786667 655.061333l-192-110.933333a32.085333 32.085333 0 0 1-16.213334-27.861333V294.4a31.232 31.232 0 0 1 16.213334-27.605333l192-110.933334a32.853333 32.853333 0 0 1 32 0l192 110.933334a32.085333 32.085333 0 0 1 16.213333 27.733333v66.986667a32 32 0 1 1-64 0V312.789333L320 220.202667l-160 92.586666v184.746667l160 92.586667 175.786667-101.461334a31.829333 31.829333 0 1 1 32 55.04l-192 110.933334a29.866667 29.866667 0 0 1-15.786667 4.693333 31.829333 31.829333 0 0 1-16.213333-4.266667z" p-id="2331" fill="#ffffff"></path><path d="M687.786667 876.373333l-192-110.933333a32.085333 32.085333 0 0 1-16.213334-27.733333v-70.4a32.213333 32.213333 0 0 1 32-32 32.213333 32.213333 0 0 1 32 32v52.053333l160 92.586667 160-92.586667v-184.746667l-160-92.586666-175.786666 101.504a31.829333 31.829333 0 0 1-32-54.912l192-110.933334a32.853333 32.853333 0 0 1 32 0l192 110.933334a32.085333 32.085333 0 0 1 16.213333 27.733333v221.866667a31.232 31.232 0 0 1-16.213333 27.733333l-192 110.933333a33.237333 33.237333 0 0 1-15.786667 3.84 31.829333 31.829333 0 0 1-16.213333-4.352z" p-id="2332" fill="#ffffff"></path></svg>