<svg xmlns="http://www.w3.org/2000/svg"
    xmlns:xlink="http://www.w3.org/1999/xlink" width="1080" zoomAndPan="magnify" viewBox="0 0 810 809.999993" height="1080" preserveAspectRatio="xMidYMid meet" version="1.0">
    <defs>
        <g/>
        <clipPath id="35b88d7dd6">
            <path d="M 238.828125 195.410156 L 571 195.410156 L 571 468.410156 L 238.828125 468.410156 Z M 238.828125 195.410156 " clip-rule="nonzero"/>
        </clipPath>
    </defs>
    <rect x="-81" width="972" fill="#ffffff" y="-80.999999" height="971.999992" fill-opacity="1"/>
    <rect x="-81" width="972" fill="#ffffff" y="-80.999999" height="971.999992" fill-opacity="1"/>
    <rect x="-81" width="972" fill="#010f20" y="-80.999999" height="971.999992" fill-opacity="1"/>
    <g clip-path="url(#35b88d7dd6)">
        <path fill="#8c52ff" d="M 511.28125 425.617188 L 480.828125 425.617188 L 490.335938 442.089844 L 319.542969 442.089844 L 330.050781 423.9375 L 339.328125 407.855469 L 354.554688 381.535156 L 376.636719 343.292969 L 404.953125 294.300781 L 445.074219 363.769531 L 475.527344 363.769531 L 428.425781 282.289062 L 420.148438 267.980469 L 413.199219 255.964844 L 404.953125 241.660156 L 393.445312 221.730469 L 432.984375 221.730469 L 439.933594 233.777344 L 452.769531 255.964844 L 467.996094 282.289062 L 525.347656 381.535156 L 375.082031 381.535156 L 359.855469 407.855469 L 570.992188 407.855469 L 555.765625 381.535156 L 498.417969 282.289062 L 483.191406 255.964844 L 463.40625 221.730469 L 455.160156 207.457031 L 448.210938 195.410156 L 347.796875 195.410156 L 354.75 207.457031 L 362.992188 221.730469 L 369.941406 233.777344 L 382.777344 255.964844 L 326.71875 255.964844 L 311.492188 282.289062 L 254.140625 381.535156 L 238.914062 407.855469 L 288.347656 407.855469 L 303.574219 381.535156 L 284.5625 381.535156 L 341.914062 282.289062 L 381.484375 282.289062 L 342.398438 349.882812 L 324.101562 381.535156 L 308.90625 407.855469 L 295.8125 430.527344 L 289.121094 442.089844 L 273.894531 468.410156 L 535.980469 468.410156 L 520.789062 442.089844 Z M 511.28125 425.617188 " fill-opacity="1" fill-rule="evenodd"/>
    </g>
    <g fill="#ffffff" fill-opacity="1">
        <g transform="translate(138.764749, 558.316816)">
            <g>
                <path d="M 41 -12.125 L 14.8125 -12.125 L 9.65625 0 L -0.375 0 L 23.203125 -52.375 L 32.78125 -52.375 L 56.421875 0 L 46.25 0 Z M 37.78125 -19.75 L 27.90625 -42.65625 L 18.109375 -19.75 Z M 37.78125 -19.75 "/>
            </g>
        </g>
    </g>
    <g fill="#ffffff" fill-opacity="1">
        <g transform="translate(206.632278, 558.316816)">
            <g>
                <path d="M 41.3125 0 L 30.609375 -15.34375 C 30.160156 -15.289062 29.484375 -15.265625 28.578125 -15.265625 L 16.765625 -15.265625 L 16.765625 0 L 7.03125 0 L 7.03125 -52.375 L 28.578125 -52.375 C 33.117188 -52.375 37.070312 -51.625 40.4375 -50.125 C 43.8125 -48.632812 46.394531 -46.492188 48.1875 -43.703125 C 49.988281 -40.910156 50.890625 -37.59375 50.890625 -33.75 C 50.890625 -29.8125 49.925781 -26.421875 48 -23.578125 C 46.082031 -20.734375 43.328125 -18.609375 39.734375 -17.203125 L 51.78125 0 Z M 41.078125 -33.75 C 41.078125 -37.09375 39.976562 -39.660156 37.78125 -41.453125 C 35.59375 -43.253906 32.378906 -44.15625 28.140625 -44.15625 L 16.765625 -44.15625 L 16.765625 -23.265625 L 28.140625 -23.265625 C 32.378906 -23.265625 35.59375 -24.175781 37.78125 -26 C 39.976562 -27.820312 41.078125 -30.40625 41.078125 -33.75 Z M 41.078125 -33.75 "/>
            </g>
        </g>
    </g>
    <g fill="#ffffff" fill-opacity="1">
        <g transform="translate(273.152964, 558.316816)">
            <g>
                <path d="M 25.0625 -21.921875 L 16.765625 -13.390625 L 16.765625 0 L 7.03125 0 L 7.03125 -52.375 L 16.765625 -52.375 L 16.765625 -25.515625 L 42.65625 -52.375 L 53.578125 -52.375 L 31.578125 -28.953125 L 54.921875 0 L 43.546875 0 Z M 25.0625 -21.921875 "/>
            </g>
        </g>
    </g>
    <g fill="#ffffff" fill-opacity="1">
        <g transform="translate(339.524, 558.316816)">
            <g>
                <path d="M 23.265625 0.75 C 19.222656 0.75 15.316406 0.175781 11.546875 -0.96875 C 7.785156 -2.113281 4.8125 -3.632812 2.625 -5.53125 L 5.984375 -13.09375 C 8.128906 -11.394531 10.757812 -10.007812 13.875 -8.9375 C 17 -7.863281 20.128906 -7.328125 23.265625 -7.328125 C 27.160156 -7.328125 30.066406 -7.953125 31.984375 -9.203125 C 33.910156 -10.453125 34.875 -12.097656 34.875 -14.140625 C 34.875 -15.640625 34.335938 -16.875 33.265625 -17.84375 C 32.191406 -18.820312 30.832031 -19.582031 29.1875 -20.125 C 27.539062 -20.675781 25.296875 -21.300781 22.453125 -22 C 18.460938 -22.945312 15.226562 -23.894531 12.75 -24.84375 C 10.28125 -25.789062 8.160156 -27.273438 6.390625 -29.296875 C 4.617188 -31.316406 3.734375 -34.046875 3.734375 -37.484375 C 3.734375 -40.378906 4.519531 -43.007812 6.09375 -45.375 C 7.664062 -47.75 10.035156 -49.632812 13.203125 -51.03125 C 16.367188 -52.425781 20.25 -53.125 24.84375 -53.125 C 28.03125 -53.125 31.171875 -52.722656 34.265625 -51.921875 C 37.359375 -51.128906 40.03125 -49.984375 42.28125 -48.484375 L 39.203125 -40.9375 C 36.910156 -42.28125 34.515625 -43.300781 32.015625 -44 C 29.523438 -44.695312 27.109375 -45.046875 24.765625 -45.046875 C 20.921875 -45.046875 18.0625 -44.394531 16.1875 -43.09375 C 14.320312 -41.800781 13.390625 -40.082031 13.390625 -37.9375 C 13.390625 -36.4375 13.925781 -35.210938 15 -34.265625 C 16.070312 -33.316406 17.429688 -32.566406 19.078125 -32.015625 C 20.722656 -31.472656 22.96875 -30.851562 25.8125 -30.15625 C 29.707031 -29.257812 32.898438 -28.320312 35.390625 -27.34375 C 37.890625 -26.375 40.023438 -24.890625 41.796875 -22.890625 C 43.566406 -20.898438 44.453125 -18.207031 44.453125 -14.8125 C 44.453125 -11.914062 43.664062 -9.296875 42.09375 -6.953125 C 40.519531 -4.609375 38.132812 -2.738281 34.9375 -1.34375 C 31.75 0.0507812 27.859375 0.75 23.265625 0.75 Z M 23.265625 0.75 "/>
            </g>
        </g>
    </g>
    <g fill="#ffffff" fill-opacity="1">
        <g transform="translate(398.412616, 558.316816)">
            <g/>
        </g>
    </g>
    <g fill="#ffffff" fill-opacity="1">
        <g transform="translate(430.888315, 558.316816)">
            <g>
                <path d="M 7.03125 -52.375 L 16.765625 -52.375 L 16.765625 -8.234375 L 44.15625 -8.234375 L 44.15625 0 L 7.03125 0 Z M 7.03125 -52.375 "/>
            </g>
        </g>
    </g>
    <g fill="#ffffff" fill-opacity="1">
        <g transform="translate(487.532218, 558.316816)">
            <g>
                <path d="M 41 -12.125 L 14.8125 -12.125 L 9.65625 0 L -0.375 0 L 23.203125 -52.375 L 32.78125 -52.375 L 56.421875 0 L 46.25 0 Z M 37.78125 -19.75 L 27.90625 -42.65625 L 18.109375 -19.75 Z M 37.78125 -19.75 "/>
            </g>
        </g>
    </g>
    <g fill="#ffffff" fill-opacity="1">
        <g transform="translate(555.399753, 558.316816)">
            <g>
                <path d="M 44.15625 -27.234375 C 47.039062 -26.285156 49.332031 -24.703125 51.03125 -22.484375 C 52.726562 -20.265625 53.578125 -17.507812 53.578125 -14.21875 C 53.578125 -9.675781 51.828125 -6.171875 48.328125 -3.703125 C 44.835938 -1.234375 39.753906 0 33.078125 0 L 7.03125 0 L 7.03125 -52.375 L 31.578125 -52.375 C 37.765625 -52.375 42.53125 -51.164062 45.875 -48.75 C 49.21875 -46.332031 50.890625 -43.003906 50.890625 -38.765625 C 50.890625 -36.171875 50.289062 -33.875 49.09375 -31.875 C 47.894531 -29.882812 46.25 -28.335938 44.15625 -27.234375 Z M 16.765625 -44.75 L 16.765625 -30.3125 L 30.53125 -30.3125 C 33.925781 -30.3125 36.53125 -30.921875 38.34375 -32.140625 C 40.164062 -33.359375 41.078125 -35.140625 41.078125 -37.484375 C 41.078125 -39.878906 40.164062 -41.6875 38.34375 -42.90625 C 36.53125 -44.132812 33.925781 -44.75 30.53125 -44.75 Z M 32.46875 -7.625 C 40.007812 -7.625 43.78125 -10.144531 43.78125 -15.1875 C 43.78125 -20.226562 40.007812 -22.75 32.46875 -22.75 L 16.765625 -22.75 L 16.765625 -7.625 Z M 32.46875 -7.625 "/>
            </g>
        </g>
    </g>
    <g fill="#ffffff" fill-opacity="1">
        <g transform="translate(624.165146, 558.316816)">
            <g>
                <path d="M 23.265625 0.75 C 19.222656 0.75 15.316406 0.175781 11.546875 -0.96875 C 7.785156 -2.113281 4.8125 -3.632812 2.625 -5.53125 L 5.984375 -13.09375 C 8.128906 -11.394531 10.757812 -10.007812 13.875 -8.9375 C 17 -7.863281 20.128906 -7.328125 23.265625 -7.328125 C 27.160156 -7.328125 30.066406 -7.953125 31.984375 -9.203125 C 33.910156 -10.453125 34.875 -12.097656 34.875 -14.140625 C 34.875 -15.640625 34.335938 -16.875 33.265625 -17.84375 C 32.191406 -18.820312 30.832031 -19.582031 29.1875 -20.125 C 27.539062 -20.675781 25.296875 -21.300781 22.453125 -22 C 18.460938 -22.945312 15.226562 -23.894531 12.75 -24.84375 C 10.28125 -25.789062 8.160156 -27.273438 6.390625 -29.296875 C 4.617188 -31.316406 3.734375 -34.046875 3.734375 -37.484375 C 3.734375 -40.378906 4.519531 -43.007812 6.09375 -45.375 C 7.664062 -47.75 10.035156 -49.632812 13.203125 -51.03125 C 16.367188 -52.425781 20.25 -53.125 24.84375 -53.125 C 28.03125 -53.125 31.171875 -52.722656 34.265625 -51.921875 C 37.359375 -51.128906 40.03125 -49.984375 42.28125 -48.484375 L 39.203125 -40.9375 C 36.910156 -42.28125 34.515625 -43.300781 32.015625 -44 C 29.523438 -44.695312 27.109375 -45.046875 24.765625 -45.046875 C 20.921875 -45.046875 18.0625 -44.394531 16.1875 -43.09375 C 14.320312 -41.800781 13.390625 -40.082031 13.390625 -37.9375 C 13.390625 -36.4375 13.925781 -35.210938 15 -34.265625 C 16.070312 -33.316406 17.429688 -32.566406 19.078125 -32.015625 C 20.722656 -31.472656 22.96875 -30.851562 25.8125 -30.15625 C 29.707031 -29.257812 32.898438 -28.320312 35.390625 -27.34375 C 37.890625 -26.375 40.023438 -24.890625 41.796875 -22.890625 C 43.566406 -20.898438 44.453125 -18.207031 44.453125 -14.8125 C 44.453125 -11.914062 43.664062 -9.296875 42.09375 -6.953125 C 40.519531 -4.609375 38.132812 -2.738281 34.9375 -1.34375 C 31.75 0.0507812 27.859375 0.75 23.265625 0.75 Z M 23.265625 0.75 "/>
            </g>
        </g>
    </g>
    <g fill="#d9d9d9" fill-opacity="1">
        <g transform="translate(239.792087, 618.316813)">
            <g>
                <path d="M 13.59375 0.328125 C 11.289062 0.328125 9.210938 -0.171875 7.359375 -1.171875 C 5.515625 -2.179688 4.0625 -3.570312 3 -5.34375 C 1.945312 -7.125 1.421875 -9.109375 1.421875 -11.296875 C 1.421875 -13.492188 1.945312 -15.476562 3 -17.25 C 4.0625 -19.03125 5.515625 -20.421875 7.359375 -21.421875 C 9.210938 -22.429688 11.289062 -22.9375 13.59375 -22.9375 C 15.894531 -22.9375 17.972656 -22.429688 19.828125 -21.421875 C 21.679688 -20.421875 23.132812 -19.035156 24.1875 -17.265625 C 25.238281 -15.503906 25.765625 -13.515625 25.765625 -11.296875 C 25.765625 -9.085938 25.238281 -7.097656 24.1875 -5.328125 C 23.132812 -3.566406 21.679688 -2.179688 19.828125 -1.171875 C 17.972656 -0.171875 15.894531 0.328125 13.59375 0.328125 Z M 13.59375 -3.359375 C 15.101562 -3.359375 16.457031 -3.695312 17.65625 -4.375 C 18.863281 -5.050781 19.8125 -6 20.5 -7.21875 C 21.195312 -8.4375 21.546875 -9.796875 21.546875 -11.296875 C 21.546875 -12.804688 21.195312 -14.171875 20.5 -15.390625 C 19.8125 -16.609375 18.863281 -17.554688 17.65625 -18.234375 C 16.457031 -18.910156 15.101562 -19.25 13.59375 -19.25 C 12.09375 -19.25 10.738281 -18.910156 9.53125 -18.234375 C 8.320312 -17.554688 7.375 -16.609375 6.6875 -15.390625 C 6 -14.171875 5.65625 -12.804688 5.65625 -11.296875 C 5.65625 -9.796875 6 -8.4375 6.6875 -7.21875 C 7.375 -6 8.320312 -5.050781 9.53125 -4.375 C 10.738281 -3.695312 12.09375 -3.359375 13.59375 -3.359375 Z M 13.59375 -3.359375 "/>
            </g>
        </g>
    </g>
    <g fill="#d9d9d9" fill-opacity="1">
        <g transform="translate(274.889244, 618.316813)">
            <g>
                <path d="M 12.4375 -17.4375 C 14.613281 -17.4375 16.359375 -16.800781 17.671875 -15.53125 C 18.984375 -14.257812 19.640625 -12.378906 19.640625 -9.890625 L 19.640625 0 L 15.59375 0 L 15.59375 -9.359375 C 15.59375 -10.867188 15.238281 -12.003906 14.53125 -12.765625 C 13.820312 -13.535156 12.8125 -13.921875 11.5 -13.921875 C 10.007812 -13.921875 8.832031 -13.472656 7.96875 -12.578125 C 7.113281 -11.679688 6.6875 -10.394531 6.6875 -8.71875 L 6.6875 0 L 2.640625 0 L 2.640625 -17.25 L 6.484375 -17.25 L 6.484375 -15.015625 C 7.160156 -15.816406 8.003906 -16.421875 9.015625 -16.828125 C 10.023438 -17.234375 11.164062 -17.4375 12.4375 -17.4375 Z M 12.4375 -17.4375 "/>
            </g>
        </g>
    </g>
    <g fill="#d9d9d9" fill-opacity="1">
        <g transform="translate(304.917629, 618.316813)">
            <g>
                <path d="M 1.78125 -10.65625 L 10.65625 -10.65625 L 10.65625 -7.296875 L 1.78125 -7.296875 Z M 1.78125 -10.65625 "/>
            </g>
        </g>
    </g>
    <g fill="#d9d9d9" fill-opacity="1">
        <g transform="translate(325.260445, 618.316813)">
            <g>
                <path d="M 10.5625 0.21875 C 8.769531 0.21875 7.164062 -0.15625 5.75 -0.90625 C 4.332031 -1.65625 3.222656 -2.703125 2.421875 -4.046875 C 1.628906 -5.398438 1.234375 -6.925781 1.234375 -8.625 C 1.234375 -10.320312 1.628906 -11.835938 2.421875 -13.171875 C 3.222656 -14.503906 4.328125 -15.546875 5.734375 -16.296875 C 7.140625 -17.054688 8.75 -17.4375 10.5625 -17.4375 C 12.257812 -17.4375 13.75 -17.09375 15.03125 -16.40625 C 16.3125 -15.71875 17.273438 -14.726562 17.921875 -13.4375 L 14.828125 -11.625 C 14.328125 -12.425781 13.707031 -13.023438 12.96875 -13.421875 C 12.226562 -13.816406 11.414062 -14.015625 10.53125 -14.015625 C 9.019531 -14.015625 7.769531 -13.523438 6.78125 -12.546875 C 5.789062 -11.566406 5.296875 -10.257812 5.296875 -8.625 C 5.296875 -6.988281 5.785156 -5.679688 6.765625 -4.703125 C 7.742188 -3.722656 9 -3.234375 10.53125 -3.234375 C 11.414062 -3.234375 12.226562 -3.429688 12.96875 -3.828125 C 13.707031 -4.222656 14.328125 -4.820312 14.828125 -5.625 L 17.921875 -3.8125 C 17.253906 -2.519531 16.28125 -1.523438 15 -0.828125 C 13.71875 -0.128906 12.238281 0.21875 10.5625 0.21875 Z M 10.5625 0.21875 "/>
            </g>
        </g>
    </g>
    <g fill="#d9d9d9" fill-opacity="1">
        <g transform="translate(351.931168, 618.316813)">
            <g>
                <path d="M 12.4375 -17.4375 C 14.613281 -17.4375 16.359375 -16.800781 17.671875 -15.53125 C 18.984375 -14.257812 19.640625 -12.378906 19.640625 -9.890625 L 19.640625 0 L 15.59375 0 L 15.59375 -9.359375 C 15.59375 -10.867188 15.238281 -12.003906 14.53125 -12.765625 C 13.820312 -13.535156 12.8125 -13.921875 11.5 -13.921875 C 10.007812 -13.921875 8.832031 -13.472656 7.96875 -12.578125 C 7.113281 -11.679688 6.6875 -10.394531 6.6875 -8.71875 L 6.6875 0 L 2.640625 0 L 2.640625 -23.96875 L 6.6875 -23.96875 L 6.6875 -15.25 C 7.351562 -15.957031 8.175781 -16.5 9.15625 -16.875 C 10.132812 -17.25 11.226562 -17.4375 12.4375 -17.4375 Z M 12.4375 -17.4375 "/>
            </g>
        </g>
    </g>
    <g fill="#d9d9d9" fill-opacity="1">
        <g transform="translate(381.959559, 618.316813)">
            <g>
                <path d="M 9.234375 -17.4375 C 11.773438 -17.4375 13.71875 -16.828125 15.0625 -15.609375 C 16.40625 -14.398438 17.078125 -12.566406 17.078125 -10.109375 L 17.078125 0 L 13.28125 0 L 13.28125 -2.09375 C 12.78125 -1.34375 12.070312 -0.769531 11.15625 -0.375 C 10.238281 0.0195312 9.132812 0.21875 7.84375 0.21875 C 6.550781 0.21875 5.421875 0 4.453125 -0.4375 C 3.484375 -0.875 2.734375 -1.484375 2.203125 -2.265625 C 1.679688 -3.054688 1.421875 -3.945312 1.421875 -4.9375 C 1.421875 -6.488281 1.992188 -7.734375 3.140625 -8.671875 C 4.296875 -9.609375 6.113281 -10.078125 8.59375 -10.078125 L 13.046875 -10.078125 L 13.046875 -10.328125 C 13.046875 -11.535156 12.6875 -12.460938 11.96875 -13.109375 C 11.25 -13.753906 10.175781 -14.078125 8.75 -14.078125 C 7.78125 -14.078125 6.828125 -13.925781 5.890625 -13.625 C 4.953125 -13.320312 4.160156 -12.90625 3.515625 -12.375 L 1.9375 -15.3125 C 2.84375 -16 3.929688 -16.523438 5.203125 -16.890625 C 6.472656 -17.253906 7.816406 -17.4375 9.234375 -17.4375 Z M 8.6875 -2.71875 C 9.695312 -2.71875 10.59375 -2.945312 11.375 -3.40625 C 12.164062 -3.875 12.722656 -4.535156 13.046875 -5.390625 L 13.046875 -7.390625 L 8.875 -7.390625 C 6.550781 -7.390625 5.390625 -6.628906 5.390625 -5.109375 C 5.390625 -4.367188 5.679688 -3.785156 6.265625 -3.359375 C 6.847656 -2.929688 7.65625 -2.71875 8.6875 -2.71875 Z M 8.6875 -2.71875 "/>
            </g>
        </g>
    </g>
    <g fill="#d9d9d9" fill-opacity="1">
        <g transform="translate(409.46969, 618.316813)">
            <g>
                <path d="M 2.640625 -17.25 L 6.6875 -17.25 L 6.6875 0 L 2.640625 0 Z M 4.6875 -20.09375 C 3.957031 -20.09375 3.34375 -20.320312 2.84375 -20.78125 C 2.351562 -21.25 2.109375 -21.828125 2.109375 -22.515625 C 2.109375 -23.203125 2.351562 -23.773438 2.84375 -24.234375 C 3.34375 -24.703125 3.957031 -24.9375 4.6875 -24.9375 C 5.414062 -24.9375 6.023438 -24.710938 6.515625 -24.265625 C 7.015625 -23.828125 7.265625 -23.273438 7.265625 -22.609375 C 7.265625 -21.898438 7.019531 -21.300781 6.53125 -20.8125 C 6.050781 -20.332031 5.4375 -20.09375 4.6875 -20.09375 Z M 4.6875 -20.09375 "/>
            </g>
        </g>
    </g>
    <g fill="#d9d9d9" fill-opacity="1">
        <g transform="translate(426.71312, 618.316813)">
            <g>
                <path d="M 12.4375 -17.4375 C 14.613281 -17.4375 16.359375 -16.800781 17.671875 -15.53125 C 18.984375 -14.257812 19.640625 -12.378906 19.640625 -9.890625 L 19.640625 0 L 15.59375 0 L 15.59375 -9.359375 C 15.59375 -10.867188 15.238281 -12.003906 14.53125 -12.765625 C 13.820312 -13.535156 12.8125 -13.921875 11.5 -13.921875 C 10.007812 -13.921875 8.832031 -13.472656 7.96875 -12.578125 C 7.113281 -11.679688 6.6875 -10.394531 6.6875 -8.71875 L 6.6875 0 L 2.640625 0 L 2.640625 -17.25 L 6.484375 -17.25 L 6.484375 -15.015625 C 7.160156 -15.816406 8.003906 -16.421875 9.015625 -16.828125 C 10.023438 -17.234375 11.164062 -17.4375 12.4375 -17.4375 Z M 12.4375 -17.4375 "/>
            </g>
        </g>
    </g>
    <g fill="#d9d9d9" fill-opacity="1">
        <g transform="translate(456.7415, 618.316813)">
            <g/>
        </g>
    </g>
    <g fill="#d9d9d9" fill-opacity="1">
        <g transform="translate(473.56523, 618.316813)">
            <g>
                <path d="M 17.828125 0 L 13.203125 -6.625 C 13.015625 -6.601562 12.726562 -6.59375 12.34375 -6.59375 L 7.234375 -6.59375 L 7.234375 0 L 3.03125 0 L 3.03125 -22.609375 L 12.34375 -22.609375 C 14.300781 -22.609375 16.003906 -22.285156 17.453125 -21.640625 C 18.910156 -20.992188 20.023438 -20.066406 20.796875 -18.859375 C 21.578125 -17.648438 21.96875 -16.21875 21.96875 -14.5625 C 21.96875 -12.863281 21.550781 -11.398438 20.71875 -10.171875 C 19.882812 -8.941406 18.695312 -8.023438 17.15625 -7.421875 L 22.34375 0 Z M 17.734375 -14.5625 C 17.734375 -16.007812 17.257812 -17.117188 16.3125 -17.890625 C 15.363281 -18.671875 13.972656 -19.0625 12.140625 -19.0625 L 7.234375 -19.0625 L 7.234375 -10.046875 L 12.140625 -10.046875 C 13.972656 -10.046875 15.363281 -10.4375 16.3125 -11.21875 C 17.257812 -12.007812 17.734375 -13.125 17.734375 -14.5625 Z M 17.734375 -14.5625 "/>
            </g>
        </g>
    </g>
    <g fill="#d9d9d9" fill-opacity="1">
        <g transform="translate(505.078732, 618.316813)">
            <g>
                <path d="M 36.078125 -22.609375 L 28.578125 0 L 24.125 0 L 18.53125 -16.734375 L 12.859375 0 L 8.359375 0 L 0.875 -22.609375 L 5.234375 -22.609375 L 10.859375 -5.421875 L 16.703125 -22.609375 L 20.578125 -22.609375 L 26.296875 -5.328125 L 32.078125 -22.609375 Z M 36.078125 -22.609375 "/>
            </g>
        </g>
    </g>
    <g fill="#d9d9d9" fill-opacity="1">
        <g transform="translate(549.92602, 618.316813)">
            <g>
                <path d="M 17.703125 -5.234375 L 6.390625 -5.234375 L 4.171875 0 L -0.15625 0 L 10.015625 -22.609375 L 14.140625 -22.609375 L 24.359375 0 L 19.953125 0 Z M 16.3125 -8.53125 L 12.046875 -18.40625 L 7.8125 -8.53125 Z M 16.3125 -8.53125 "/>
            </g>
        </g>
    </g>
</svg>