<svg width="220" height="220" viewBox="0 0 220 220" fill="none" xmlns="http://www.w3.org/2000/svg">
<path fill-rule="evenodd" clip-rule="evenodd" d="M158.029 152.72H144.273L148.568 160.142H71.4203L76.1664 151.963L80.3571 144.717L87.235 132.858L97.2095 115.629L110 93.5552L128.123 124.854H141.879L120.603 88.1433L116.864 81.6965L113.725 76.2829L110 69.8379L104.802 60.8586H122.662L125.801 66.2863L131.599 76.2829L138.477 88.1433L164.382 132.858H96.5072L89.6294 144.717H185L178.122 132.858L152.218 88.1433L145.34 76.2829L136.404 60.8586L132.679 54.4277L129.54 49H84.1824L87.3234 54.4277L91.0464 60.8586L94.1853 66.2863L99.9832 76.2829H74.6614L67.7836 88.1433L41.8779 132.858L35 144.717H57.3292L64.2071 132.858H55.6194L81.525 88.1433H99.3991L81.744 118.598L73.4793 132.858L66.6155 144.717L60.7011 154.932L57.6786 160.142L50.8007 172H169.185L162.323 160.142L158.029 152.72Z" fill="#8C52FF"/>
</svg>
